<?xml version="1.0" encoding="utf-8"?>
<!-- Generator: Adobe Illustrator 23.0.6, SVG Export Plug-In . SVG Version: 6.00 Build 0)  -->
<svg version="1.1" xmlns="http://www.w3.org/2000/svg" xmlns:xlink="http://www.w3.org/1999/xlink" x="0px" y="0px"
	 viewBox="0 0 350 150" style="enable-background:new 0 0 350 150;" xml:space="preserve">
<style type="text/css">
	.st0{fill:#8D6A9F;}
	.st1{fill:#FFFFFF;}
	.st2{fill:#8D6A9F;stroke:#FFFFFF;stroke-width:4;stroke-miterlimit:10;}
	.st3{fill:none;stroke:#FFFFFF;stroke-miterlimit:10;}
	.st4{fill:#FFFFFF;stroke:#8D6A9F;stroke-width:4;stroke-miterlimit:10;}
</style>
<g id="Layer_1">
	<g>
		<rect class="st0" width="350" height="150"/>
	</g>
</g>
<g id="Layer_2">
	<g>
		<g>
			<path class="st1" d="M114.43,106c0.41-9.83,5.38-18.81,13.02-23.65c2.95,5.25,7.34,8.32,12.05,8.32c4.92,0,9.45-3.3,12.41-8.94
				c8.25,4.69,13.61,13.92,14.04,24.27H114.43z"/>
			<path class="st0" d="M152.6,84.52c6.17,4.23,10.3,11.39,11.19,19.48h-47.21c0.86-7.63,4.63-14.51,10.28-18.81
				c3.27,4.75,7.79,7.48,12.64,7.48C144.61,92.67,149.3,89.69,152.6,84.52 M150.99,79c-2.46,5.82-6.68,9.67-11.49,9.67
				c-4.64,0-8.74-3.59-11.22-9.11c-9.39,4.92-15.88,15.51-15.88,27.78c0,0.21,0,0.45,0.02,0.67h55.54c0.02-0.21,0.02-0.45,0.02-0.67
				C167.98,94.6,160.98,83.66,150.99,79L150.99,79z"/>
		</g>
		<path class="st2" d="M153.47,69.93c0,3.59-0.83,6.92-2.26,9.71c-2.47,4.79-6.71,7.95-11.53,7.95c-4.66,0-8.78-2.95-11.27-7.49
			c-1.59-2.88-2.53-6.38-2.53-10.17c0-9.75,6.18-17.66,13.79-17.66C147.3,52.26,153.47,60.18,153.47,69.93z"/>
		<path class="st3" d="M164.68,63.66"/>
		<path class="st3" d="M157.62,70.73"/>
		<path class="st1" d="M189.17,53.05c0,7.52-7.91,13.6-17.66,13.6c-1.73,0-3.41-0.19-4.98-0.55c-5.08,4.7-10.12,6.35-10.12,6.35
			s1.77-4.11,2.22-10.1c-2.97-2.44-4.78-5.71-4.78-9.31c0-7.52,7.91-13.6,17.66-13.6S189.17,45.53,189.17,53.05z"/>
		<path class="st4" d="M195.73,68.75c0,4.29,0.99,8.29,2.69,11.64c2.94,5.73,7.98,9.52,13.71,9.52c5.54,0,10.43-3.53,13.39-8.97
			c1.89-3.45,3-7.64,3-12.19c0-11.68-7.35-21.16-16.4-21.16C203.06,47.59,195.73,57.07,195.73,68.75z"/>
		<g>
			<path class="st0" d="M185.49,102.07c0.66-7.16,6.01-13.52,14.11-16.76c2.98,4.18,7.47,6.63,12.3,6.63
				c4.63,0,8.99-2.29,11.95-6.19c7.49,3.35,12.43,9.53,13.08,16.32H185.49z"/>
			<g>
				<path class="st1" d="M198.97,87.76c3.32,3.92,7.96,6.18,12.92,6.18c4.73,0,9.21-2.09,12.49-5.71
					c5.27,2.74,8.94,7.04,10.17,11.84h-46.7C189.14,94.96,193.17,90.47,198.97,87.76 M200.41,82.88
					c-9.99,3.41-16.99,11.4-16.99,20.71c0,0.16,0,0.33,0.02,0.49h55.54c0.02-0.16,0.02-0.33,0.02-0.49c0-8.96-6.49-16.7-15.88-20.3
					c-2.48,4.03-6.58,6.66-11.22,6.66C207.1,89.94,202.87,87.13,200.41,82.88L200.41,82.88z"/>
			</g>
		</g>
		<path class="st3" d="M193.78,66.02"/>
		<path class="st3" d="M200.85,73.08"/>
		<g>
			<path class="st0" d="M165.81,45.85c0.32-0.28,0.67-0.55,1.05-0.8c0.38-0.25,0.79-0.48,1.24-0.66c0.44-0.19,0.92-0.34,1.44-0.45
				c0.52-0.11,1.08-0.16,1.68-0.16c0.82,0,1.57,0.11,2.24,0.34c0.67,0.23,1.25,0.55,1.73,0.97c0.48,0.42,0.85,0.92,1.12,1.52
				c0.26,0.59,0.4,1.26,0.4,1.99c0,0.72-0.1,1.34-0.31,1.86c-0.21,0.52-0.47,0.98-0.78,1.36c-0.31,0.39-0.65,0.72-1.02,1
				c-0.37,0.28-0.72,0.55-1.05,0.8c-0.33,0.25-0.62,0.49-0.85,0.73c-0.24,0.24-0.38,0.51-0.43,0.81l-0.33,2.06h-2.39l-0.24-2.3
				c-0.06-0.44,0.01-0.83,0.19-1.17c0.18-0.33,0.43-0.64,0.73-0.92c0.31-0.28,0.65-0.55,1.02-0.81c0.38-0.26,0.73-0.54,1.06-0.85
				c0.33-0.31,0.6-0.65,0.83-1.03c0.22-0.38,0.33-0.84,0.33-1.36c0-0.34-0.06-0.64-0.19-0.91c-0.13-0.27-0.3-0.5-0.53-0.69
				c-0.23-0.19-0.5-0.34-0.81-0.45c-0.32-0.1-0.66-0.16-1.02-0.16c-0.54,0-0.99,0.06-1.36,0.18c-0.37,0.12-0.69,0.25-0.95,0.4
				c-0.26,0.15-0.48,0.28-0.66,0.4c-0.18,0.12-0.34,0.18-0.48,0.18c-0.34,0-0.58-0.14-0.73-0.42L165.81,45.85z M168.48,62.51
				c0-0.29,0.05-0.57,0.16-0.83c0.11-0.26,0.26-0.49,0.45-0.68c0.19-0.19,0.42-0.34,0.68-0.45c0.26-0.11,0.55-0.17,0.85-0.17
				c0.3,0,0.58,0.06,0.84,0.17c0.26,0.11,0.48,0.26,0.68,0.45c0.19,0.19,0.35,0.42,0.46,0.68c0.11,0.26,0.17,0.54,0.17,0.83
				c0,0.3-0.06,0.58-0.17,0.84c-0.11,0.26-0.27,0.48-0.46,0.67c-0.19,0.19-0.42,0.34-0.68,0.45c-0.26,0.11-0.54,0.16-0.84,0.16
				c-0.3,0-0.58-0.05-0.85-0.16s-0.49-0.26-0.68-0.45c-0.19-0.19-0.34-0.41-0.45-0.67S168.48,62.82,168.48,62.51z"/>
		</g>
	</g>
</g>
</svg>
