<?xml version="1.0" encoding="UTF-8" standalone="no"?>
<!-- Generator: Adobe Illustrator 23.0.6, SVG Export Plug-In . SVG Version: 6.00 Build 0)  -->

<svg
   version="1.1"
   x="0px"
   y="0px"
   viewBox="0 0 350 150"
   style="enable-background:new 0 0 350 150;"
   xml:space="preserve"
   id="svg29"
   sodipodi:docname="sysrev-teaser.svg"
   inkscape:version="1.1 (c68e22c387, 2021-05-23)"
   xmlns:inkscape="http://www.inkscape.org/namespaces/inkscape"
   xmlns:sodipodi="http://sodipodi.sourceforge.net/DTD/sodipodi-0.dtd"
   xmlns="http://www.w3.org/2000/svg"
   xmlns:svg="http://www.w3.org/2000/svg"><defs
   id="defs33" /><sodipodi:namedview
   id="namedview31"
   pagecolor="#ffffff"
   bordercolor="#999999"
   borderopacity="1"
   inkscape:pageshadow="0"
   inkscape:pageopacity="0"
   inkscape:pagecheckerboard="0"
   showgrid="false"
   inkscape:zoom="3.1257143"
   inkscape:cx="170.52102"
   inkscape:cy="75.022852"
   inkscape:window-width="1849"
   inkscape:window-height="1057"
   inkscape:window-x="63"
   inkscape:window-y="-8"
   inkscape:window-maximized="1"
   inkscape:current-layer="svg29" />
<style
   type="text/css"
   id="style2">
	.st0{fill:#F8C839;}
	.st1{fill:none;stroke:#FFFFFF;stroke-width:6;stroke-miterlimit:10;}
	.st2{fill:#FFFFFF;}
	.st3{fill:none;stroke:#FFFFFF;stroke-miterlimit:10;}
</style>
<g
   id="Layer_1">
</g>
<g
   id="Layer_3"
   style="fill:#30b533;fill-opacity:1">
	<g
   id="g7"
   style="fill:#30b533;fill-opacity:1">
		<rect
   x="-0.46"
   y="-0.2"
   class="st0"
   width="350"
   height="150"
   id="rect5"
   style="fill:#30b533;fill-opacity:1" />
	</g>
</g>

<g
   id="Layer_2"
   transform="translate(-0.66500001,4.254639)"><path
     class="st1"
     d="m 229.16,40.61 v 51.42 l -47.49,7.62 c 0,0 -0.08,5.93 -6.28,5.93 -6.27,0 -6.65,-5.93 -6.65,-5.93 L 121.25,92.03 V 40.61"
     id="path9" /><path
     class="st1"
     d="M 231.62,39.75"
     id="path11" /><path
     class="st1"
     d="M 123.71,39.75"
     id="path13" /><path
     class="st2"
     d="m 222.45,86.39 -0.02,-51.86 c -25.92,-6.61 -47.24,8.81 -47.24,8.81 0,0 -25.52,-17.17 -47.23,-8.27 v 51.88 l 47.24,7.93 z"
     id="path15" /><line
     class="st3"
     x1="133.98"
     y1="43"
     x2="170.44"
     y2="50.580002"
     id="line17" /><line
     class="st3"
     x1="133.39999"
     y1="55.509998"
     x2="170.44"
     y2="62.389999"
     id="line19" /><line
     class="st3"
     x1="133.39999"
     y1="66.849998"
     x2="170.44"
     y2="74.209999"
     id="line21" /><line
     class="st3"
     x1="133.39999"
     y1="79.360001"
     x2="170.44"
     y2="86.029999"
     id="line23" /><line
     class="st3"
     x1="216.44"
     y1="44.16"
     x2="179.91"
     y2="50.84"
     id="line25" /><line
     class="st3"
     x1="216.14999"
     y1="55.799999"
     x2="179.91"
     y2="62.650002"
     id="line27" /><line
     class="st3"
     x1="216.44"
     y1="68.309998"
     x2="179.91"
     y2="74.459999"
     id="line29" /><line
     class="st3"
     x1="217.02"
     y1="79.650002"
     x2="179.91"
     y2="86.269997"
     id="line31" /></g></svg>
