<?xml version="1.0" encoding="utf-8"?>
<!-- Generator: Adobe Illustrator 23.0.6, SVG Export Plug-In . SVG Version: 6.00 Build 0)  -->
<svg version="1.1" xmlns="http://www.w3.org/2000/svg" xmlns:xlink="http://www.w3.org/1999/xlink" x="0px" y="0px"
	 viewBox="0 0 350 150" style="enable-background:new 0 0 350 150;" xml:space="preserve">
<style type="text/css">
	.st0{fill:#F37748;}
	.st1{fill:none;stroke:#FFFFFF;stroke-width:3;stroke-miterlimit:10;}
	.st2{fill:none;stroke:#FFFFFF;stroke-width:6;stroke-miterlimit:10;}
</style>
<g id="Layer_1">
</g>
<g id="Layer_2">
	<g>
		<rect class="st0" width="350" height="150"/>
	</g>
</g>
<g id="Layer_3">
	<path class="st1" d="M186.21,77.44c0,3.07-1.12,5.85-2.95,7.94c-1.98,2.26-4.83,3.68-7.98,3.68V75.4l9.34-4.01
		c0.12,0.21,0.24,0.42,0.34,0.64C185.75,73.64,186.21,75.49,186.21,77.44z M165.95,71.39c-0.03,0.04-0.05,0.08-0.07,0.12
		c-0.15,0.26-0.28,0.53-0.41,0.8c-0.73,1.55-1.13,3.29-1.13,5.14c0,0.14,0,0.26,0.01,0.4c0.08,2.58,0.95,4.95,2.38,6.85
		c2,2.66,5.08,4.37,8.54,4.37V75.4L165.95,71.39z M178.19,66.24c-0.93-0.27-1.91-0.42-2.92-0.42c-1.01,0-1.99,0.15-2.92,0.43
		c-2.7,0.79-4.98,2.65-6.4,5.14l9.32,4.01l9.34-4.01C183.18,68.91,180.9,67.03,178.19,66.24z M186.71,78.18h7.02 M182.8,84.93
		l4.96,4.96 M184.85,72.12l4.96-4.96 M158.27,77.84h7.02 M161.88,89.55l4.96-4.96 M160.28,66.82l4.96,4.96 M172.36,66.25
		c0,0-1.18-10.29-8.01-12.04 M187.58,50.11c-8.68,0.75-9.38,16.14-9.38,16.14"/>
</g>
<g id="Layer_4">
	<path class="st2" d="M207.03,70.37c0,9.63-4.21,18.26-10.89,24.18c-5.7,5.04-13.2,8.11-21.41,8.11
		c-17.84,0-32.29-14.46-32.29-32.29s14.46-32.3,32.29-32.3S207.03,52.53,207.03,70.37z M195.99,94.4
		c8.53,8.51,17.05,17.02,25.58,25.53"/>
</g>
</svg>
