<?xml version="1.0" encoding="utf-8"?>
<!-- Generator: Adobe Illustrator 23.0.6, SVG Export Plug-In . SVG Version: 6.00 Build 0)  -->
<svg version="1.1" xmlns="http://www.w3.org/2000/svg" xmlns:xlink="http://www.w3.org/1999/xlink" x="0px" y="0px"
	 viewBox="0 0 350 150" style="enable-background:new 0 0 350 150;" xml:space="preserve">
<style type="text/css">
	.st0{fill:#B24C63;}
	.st1{fill:none;stroke:#FFFFFF;stroke-width:6;stroke-miterlimit:10;}
	.st2{fill:#FFFFFF;stroke:#FFFFFF;stroke-width:0.25;stroke-miterlimit:10;}
</style>
<g id="Layer_1">
</g>
<g id="Layer_2">
	<g>
		<rect class="st0" width="350" height="150"/>
	</g>
</g>
<g id="Layer_3">
	<path class="st1" d="M232,67.97c0,18.22-24.84,32.97-55.5,32.97c-5.44,0-10.7-0.46-15.66-1.34C144.88,111,129.05,115,129.05,115
		s5.55-9.97,6.98-24.47C126.71,84.62,121,76.68,121,67.97C121,49.75,145.84,35,176.5,35S232,49.75,232,67.97z"/>
	<g>
		<path class="st2" d="M171.29,67.69c0,1.8-0.51,3.09-1.53,3.89c-1.02,0.79-2.46,1.19-4.32,1.19c-1.37,0-2.59-0.28-3.67-0.85
			c-0.74,0.56-1.74,0.85-2.99,0.85c-0.41,0-0.84-0.07-1.3-0.21c-0.46-0.14-0.86-0.35-1.2-0.63c-0.24,1.52-0.79,2.79-1.64,3.82
			c-0.86,1.03-1.95,1.8-3.28,2.31c-1.33,0.51-2.84,0.76-4.51,0.76c-1.65,0-3.05-0.28-4.21-0.85c-1.16-0.56-2.03-1.35-2.62-2.36
			c-0.58-1.01-0.88-2.17-0.88-3.5c0-0.65,0.05-1.31,0.15-1.97c0.1-0.66,0.22-1.22,0.37-1.68l2.05-0.72l0.26,0.13
			c-0.22,1.08-0.33,2.08-0.33,2.99c0,1.15,0.18,2.12,0.52,2.91c0.35,0.79,0.94,1.4,1.77,1.84c0.83,0.43,1.97,0.65,3.4,0.65
			c1.65,0,2.94-0.23,3.89-0.68c0.94-0.46,1.72-1.06,2.32-1.82c0.28-0.69,0.43-1.41,0.43-2.15c0-0.8-0.15-1.64-0.44-2.5
			c-0.29-0.87-0.76-2.03-1.38-3.48l2.28-1.59h0.2l0.36,1.01c0.19,0.56,0.41,1.17,0.63,1.81c0.23,0.64,0.45,1.17,0.67,1.58
			c0.63,1.19,1.55,1.79,2.77,1.79c0.28,0,0.57-0.03,0.88-0.1c0.3-0.06,0.54-0.15,0.71-0.26c0.19-0.26,0.41-0.69,0.65-1.28
			c0.24-0.6,0.53-1.41,0.88-2.45l2.57-0.39l0.16,0.13c-0.07,0.17-0.14,0.36-0.21,0.57c-0.08,0.21-0.16,0.43-0.24,0.67
			c-0.41,1.24-0.77,2.16-1.07,2.76c0.8,0.24,1.56,0.36,2.28,0.36c1.43,0,2.42-0.13,2.96-0.39c0.15-0.37,0.23-0.8,0.23-1.3
			c0-0.67-0.13-1.4-0.39-2.2c-0.26-0.79-0.64-1.74-1.14-2.85l2.15-1.69l0.19,0.03C170.74,64.46,171.29,66.41,171.29,67.69z"/>
		<path class="st2" d="M178.2,77.97c-1.16-0.56-2.03-1.35-2.62-2.36s-0.88-2.17-0.88-3.5c0-0.65,0.05-1.31,0.15-1.97
			c0.1-0.66,0.22-1.22,0.37-1.68l2.05-0.72l0.26,0.13c-0.22,1.08-0.33,2.08-0.33,2.99c0,1.15,0.17,2.12,0.52,2.91
			c0.35,0.79,0.94,1.4,1.77,1.84c0.83,0.43,1.97,0.65,3.4,0.65c1.37,0,2.53-0.18,3.5-0.54c0.96-0.36,1.78-0.95,2.46-1.77
			c0.22-0.48,0.4-1.14,0.54-1.98c0.14-0.85,0.21-1.86,0.21-3.06V51.17l2.34-0.59l0.23,0.1l-0.03,17.92c0,2.41-0.37,4.36-1.11,5.87
			c-0.74,1.51-1.82,2.61-3.24,3.3c-1.42,0.69-3.21,1.04-5.38,1.04C180.77,78.81,179.36,78.53,178.2,77.97z"/>
		<path class="st2" d="M196.59,72.93l-0.19-0.1V51.17l2.37-0.62l0.16,0.13l-0.03,21.76L196.59,72.93z"/>
		<path class="st2" d="M211.88,63.37c0.82,0.72,1.47,1.64,1.94,2.76c0.47,1.13,0.7,2.25,0.7,3.38c0,1.17-0.14,2-0.41,2.49
			s-0.72,0.73-1.35,0.73c-0.48,0-1.21-0.04-2.21-0.13c-0.91-0.11-1.75-0.16-2.5-0.16c-0.52,0-1.06,0.07-1.63,0.2
			c-0.56,0.13-0.99,0.28-1.27,0.46c-0.13,0.43-0.19,0.99-0.19,1.66c0,0.82,0.07,1.74,0.21,2.76c0.14,1.02,0.35,2.34,0.63,3.97
			l0.36,2.02l-2.15,1.04l-0.26-0.16c-0.11-0.82-0.21-1.51-0.31-2.05c-0.1-0.54-0.17-0.95-0.21-1.23c-0.2-1.17-0.36-2.28-0.5-3.32
			c-0.14-1.04-0.21-1.84-0.21-2.41c0-0.93,0.21-1.81,0.63-2.63c0.42-0.82,1.1-1.5,2.02-2.03c0.92-0.53,2.08-0.8,3.46-0.8
			c0.91,0,2.1,0.11,3.58,0.33c-0.02-0.89-0.19-1.75-0.52-2.59s-0.75-1.51-1.28-2.03c-0.53-0.52-1.1-0.78-1.71-0.78
			c-0.54,0-1.05,0.28-1.53,0.84c-0.48,0.56-0.81,1.41-1.01,2.54l-1.4,0.23l-0.33-0.16c0.06-1.28,0.33-2.37,0.78-3.27
			c0.46-0.9,1.03-1.58,1.72-2.03c0.69-0.46,1.42-0.68,2.18-0.68C210.13,62.29,211.05,62.65,211.88,63.37z"/>
	</g>
</g>
</svg>
