<?xml version="1.0" encoding="utf-8"?>
<!-- Generator: Adobe Illustrator 23.0.6, SVG Export Plug-In . SVG Version: 6.00 Build 0)  -->
<svg version="1.1" xmlns="http://www.w3.org/2000/svg" xmlns:xlink="http://www.w3.org/1999/xlink" x="0px" y="0px"
	 viewBox="0 0 350 150" style="enable-background:new 0 0 350 150;" xml:space="preserve">
<style type="text/css">
	.st0{fill:#1667E6;}
	.st1{fill:none;stroke:#FFFFFF;stroke-width:4;stroke-miterlimit:10;}
	.st2{fill:#1667E6;stroke:#FFFFFF;stroke-width:6;stroke-miterlimit:10;}
</style>
<g id="Layer_1">
</g>
<g id="Layer_2">
	<rect class="st0" width="350" height="150"/>
</g>
<g id="Layer_3">
	<path class="st1" d="M119.12,94.28H83.88c-2.92,0-5.29-2.37-5.29-5.29V61.6c0-2.92,2.37-5.29,5.29-5.29h35.24
		c2.92,0,5.29,2.37,5.29,5.29v27.39C124.41,91.91,122.04,94.28,119.12,94.28z"/>
	<path class="st2" d="M210.62,106.69H139.7c-2.92,0-5.29-2.37-5.29-5.29V48.6c0-2.92,2.37-5.29,5.29-5.29h70.92
		c2.92,0,5.29,2.37,5.29,5.29v52.81C215.91,104.33,213.54,106.69,210.62,106.69z"/>
	<path class="st1" d="M266.12,94.28h-35.24c-2.92,0-5.29-2.37-5.29-5.29V61.6c0-2.92,2.37-5.29,5.29-5.29h35.24
		c2.92,0,5.29,2.37,5.29,5.29v27.39C271.41,91.91,269.04,94.28,266.12,94.28z"/>
</g>
</svg>
