<?xml version="1.0" encoding="utf-8"?>
<!-- Generator: Adobe Illustrator 23.0.6, SVG Export Plug-In . SVG Version: 6.00 Build 0)  -->
<svg version="1.1" xmlns="http://www.w3.org/2000/svg" xmlns:xlink="http://www.w3.org/1999/xlink" x="0px" y="0px"
	 viewBox="0 0 350 150" style="enable-background:new 0 0 350 150;" xml:space="preserve">
<style type="text/css">
	.st0{fill:#1667E6;}
	.st1{fill:none;stroke:#FFFFFF;stroke-width:4;stroke-miterlimit:10;}
	.st2{fill:#FFFFFF;}
	.st3{fill:none;stroke:#1667E6;stroke-width:4;stroke-miterlimit:10;}
</style>
<g id="Layer_1">
	<g>
		<rect class="st0" width="350" height="150"/>
	</g>
</g>
<g id="Layer_2">
	<path class="st1" d="M229.16,40.61v51.42l-47.49,7.62c0,0-0.08,5.93-6.28,5.93c-6.27,0-6.65-5.93-6.65-5.93l-47.49-7.62V40.61"/>
	<path class="st1" d="M231.62,39.75"/>
	<path class="st1" d="M123.71,39.75"/>
	<path class="st2" d="M222.45,86.39l-0.02-51.86c-25.92-6.61-47.24,8.81-47.24,8.81s-25.52-17.17-47.23-8.27v51.88l47.24,7.93
		L222.45,86.39z"/>
	<line class="st3" x1="133.98" y1="43" x2="170.44" y2="50.58"/>
	<line class="st3" x1="133.4" y1="55.51" x2="170.44" y2="62.39"/>
	<line class="st3" x1="133.4" y1="66.85" x2="170.44" y2="74.21"/>
	<line class="st3" x1="133.4" y1="79.36" x2="170.44" y2="86.03"/>
	<line class="st3" x1="216.44" y1="44.16" x2="179.91" y2="50.84"/>
	<line class="st3" x1="216.15" y1="55.8" x2="179.91" y2="62.65"/>
	<line class="st3" x1="216.44" y1="68.31" x2="179.91" y2="74.46"/>
	<line class="st3" x1="217.02" y1="79.65" x2="179.91" y2="86.27"/>
</g>
</svg>
